<?xml version="1.0" encoding="iso-8859-1"?>
<!-- Generator: Adobe Illustrator 19.0.0, SVG Export Plug-In . SVG Version: 6.00 Build 0)  -->
<svg version="1.1" id="Capa_1" xmlns="http://www.w3.org/2000/svg" xmlns:xlink="http://www.w3.org/1999/xlink" x="0px" y="0px"
	 viewBox="0 0 512 512" style="enable-background:new 0 0 512 512;" xml:space="preserve">
<path style="fill:#FF5A5A;" d="M512,256c0,141.385-114.615,256-256,256c-33.865,0-66.194-6.572-95.775-18.526
	c-44.084-17.784-82.077-47.501-109.986-85.149c-9.906-13.354-18.536-27.7-25.725-42.862C8.798,332.278,0,295.163,0,256
	C0,114.615,114.615,0,256,0S512,114.615,512,256z"/>
<g>
	<circle style="fill:#FC9C95;" cx="288.956" cy="141.072" r="68.106"/>
	<circle style="fill:#FC9C95;" cx="379.507" cy="151.51" r="68.106"/>
	<circle style="fill:#FC9C95;" cx="308.496" cy="66.111" r="36.822"/>
	<circle style="fill:#FC9C95;" cx="406.497" cy="229.157" r="36.822"/>
	<circle style="fill:#FC9C95;" cx="432.368" cy="199.063" r="36.822"/>
	<circle style="fill:#FC9C95;" cx="366.676" cy="250.263" r="36.822"/>
	<circle style="fill:#FC9C95;" cx="366.676" cy="90.331" r="36.822"/>
</g>
<path style="fill:#C6813C;" d="M496.137,47.594L476.183,27.64c-14.893-14.893-39.038-14.893-53.93,0l-18.057,18.057
	c-5.74,5.74-5.74,15.044,0,20.783l1.43,1.43l-35.268,35.268c-5.821,5.821-5.821,15.26,0,21.081l29.162,29.162
	c5.821,5.821,15.26,5.821,21.081,0l35.268-35.268l1.43,1.43c5.74,5.74,15.044,5.74,20.783,0l18.057-18.057
	C511.029,86.631,511.029,62.486,496.137,47.594z"/>
<g>
	<path style="fill:#AF6828;" d="M378.081,131.983l-7.721-7.721c-5.822-5.822-5.822-15.265,0-21.087l35.265-35.265l-1.434-1.434
		c-5.733-5.733-5.733-15.043,0-20.777l18.058-18.058c14.895-14.895,39.042-14.895,53.937,0l5.283,5.283
		c-6.997-6.997-24.744-0.599-39.639,14.297L423.772,65.28c-5.733,5.733-8.201,12.575-5.505,15.272l0.673,0.673l-35.265,35.265
		C377.851,122.311,375.346,129.249,378.081,131.983z"/>
	
		<rect x="391.694" y="91.572" transform="matrix(-0.7071 -0.7071 0.7071 -0.7071 661.0397 466.9105)" style="fill:#AF6828;" width="71.052" height="9.956"/>
</g>
<path style="fill:#32BF84;" d="M377.093,209.648l-82.704,82.704c-9.968,9.979-18.369,21.285-25.004,33.573
	c-6.635,12.267-11.504,25.496-14.378,39.299c-0.825,3.939-1.808,7.847-2.957,11.682c-6.844,23.04-19.341,44.095-36.425,61.179
	l-55.4,55.39c-59.716-24.095-108.262-70.081-135.711-128.01l59.246-59.246c9.968-9.968,21.274-18.369,33.562-25.004
	c8.767-4.744,18.024-8.579,27.627-11.421c3.835-1.16,7.732-2.132,11.672-2.957c27.606-5.757,52.924-19.446,72.871-39.382
	l82.704-82.704L377.093,209.648z"/>
<path style="fill:#29A886;" d="M329.08,161.625l-82.714,82.714c-19.937,19.937-42.235,36.645-64.157,48.086
	c-3.124,1.641-6.269,3.365-9.404,5.214c-7.847,4.608-15.694,9.853-23.416,15.642c-10.815,8.098-21.368,17.262-31.336,27.23
	l-67.814,67.814c-9.906-13.354-18.536-27.7-25.725-42.862l59.246-59.246c9.968-9.968,21.274-18.369,33.562-25.004
	c8.767-4.744,18.024-8.579,27.627-11.421c3.835-1.16,7.732-2.132,11.672-2.957c27.606-5.757,52.924-19.446,72.871-39.382
	l82.704-82.704L329.08,161.625z"/>
<path style="fill:#FFE461;" d="M252.046,376.904c-23.417-9.502-45.366-23.747-64.363-42.745
	c-9.443-9.443-17.715-19.633-24.808-30.34c-7.178-10.843-13.151-22.246-17.927-34.031c3.835-1.154,7.729-2.13,11.675-2.952
	c27.6-5.762,52.925-19.447,72.864-39.384l82.706-82.706l64.906,64.906l-82.706,82.706c-9.969,9.969-18.377,21.278-25.012,33.564
	c-6.635,12.268-11.496,25.496-14.373,39.3C254.185,369.166,253.201,373.069,252.046,376.904z"/>
<path style="fill:#E8CA4D;" d="M329.076,161.63l-82.706,82.706c-19.939,19.939-42.243,36.645-64.159,48.089
	c-3.131,1.637-6.269,3.369-9.409,5.218c-3.318,1.942-6.627,3.996-9.927,6.176c-7.178-10.843-13.151-22.246-17.927-34.031
	c3.835-1.154,7.729-2.13,11.675-2.952c27.6-5.762,52.925-19.447,72.864-39.384l82.706-82.706L329.076,161.63z"/>
<path style="fill:#32BF84;" d="M334.996,247.744l-60.899-60.899c-3.323-3.323-3.323-8.709,0-12.032l29.337-29.337
	c3.323-3.323,8.709-3.323,12.032,0l60.899,60.899c3.323,3.323,3.323,8.709,0,12.032l-29.337,29.337
	C343.706,251.067,338.319,251.067,334.996,247.744z"/>
<path style="fill:#29A886;" d="M294.259,193.189l27.552-27.552c3.816-3.816,10.002-3.815,13.817,0l-19.269-19.269
	c-3.816-3.816-10.002-3.816-13.817,0L274.99,173.92c-3.816,3.816-3.816,10.002,0,13.817l19.269,19.269
	C290.443,203.191,290.443,197.005,294.259,193.189z"/>
<g>
	<path style="fill:#F9F9F9;" d="M333.322,49.392c-6.884,0-9.897-9.094-4.358-13.191c5.279-3.905,12.89,0.934,11.511,7.386
		C339.76,46.925,336.744,49.392,333.322,49.392z"/>
	<path style="fill:#F9F9F9;" d="M366.759,48.274c-6.719,0-9.824-8.711-4.642-12.964c5.189-4.258,13.144,0.496,11.809,7.081
		C373.243,45.764,370.209,48.274,366.759,48.274z"/>
	<path style="fill:#F9F9F9;" d="M462.89,173.735c-6.603,0-9.785-8.476-4.814-12.821c4.99-4.36,13.051,0,12.044,6.583
		C469.579,171.032,466.475,173.735,462.89,173.735z"/>
	<path style="fill:#F9F9F9;" d="M469.159,248.968c-6.623,0-9.795-8.534-4.778-12.848c5.018-4.314,13.012,0.049,12.009,6.611
		C475.849,246.266,472.746,248.968,469.159,248.968z"/>
	<path style="fill:#F9F9F9;" d="M271.673,66.111c-6.553,0-9.746-8.341-4.914-12.733c5.033-4.575,13.302-0.021,12.112,6.673
		C278.259,63.505,275.196,66.111,271.673,66.111z"/>
	<path style="fill:#F9F9F9;" d="M300.56,117.356c-6.553,0-9.746-8.341-4.914-12.733c5.033-4.575,13.302-0.021,12.112,6.673
		C307.146,114.751,304.082,117.356,300.56,117.356z"/>
</g>
<g>
</g>
<g>
</g>
<g>
</g>
<g>
</g>
<g>
</g>
<g>
</g>
<g>
</g>
<g>
</g>
<g>
</g>
<g>
</g>
<g>
</g>
<g>
</g>
<g>
</g>
<g>
</g>
<g>
</g>
</svg>
